<?xml version="1.0" encoding="UTF-8" standalone="no"?><svg xmlns="http://www.w3.org/2000/svg" xmlns:xlink="http://www.w3.org/1999/xlink" fill="none" height="22" preserveAspectRatio="xMidYMid meet" style="fill: none" version="1" viewBox="1.0 1.0 22.0 22.0" width="22" zoomAndPan="magnify"><g id="change1_1"><path clip-rule="evenodd" d="M12 3C7.02944 3 3 7.02944 3 12C3 16.9706 7.02944 21 12 21C16.9706 21 21 16.9706 21 12C21 7.02944 16.9706 3 12 3ZM1 12C1 5.92487 5.92487 1 12 1C18.0751 1 23 5.92487 23 12C23 18.0751 18.0751 23 12 23C5.92487 23 1 18.0751 1 12Z" fill="#ffffff" fill-rule="evenodd"/></g><g id="change1_2"><path clip-rule="evenodd" d="M11 8.66666V18.6667H13V8.66666H11Z" fill="#ffffff" fill-rule="evenodd"/></g><g id="change1_3"><path clip-rule="evenodd" d="M11 5.33332V7.55554H13V5.33332H11Z" fill="#ffffff" fill-rule="evenodd"/></g></svg>