<?xml version="1.0" encoding="UTF-8"?><svg xmlns="http://www.w3.org/2000/svg" xmlns:xlink="http://www.w3.org/1999/xlink" height="507.0" preserveAspectRatio="xMidYMid meet" version="1.0" viewBox="-0.4 -7.0 359.6 507.0" width="359.6" zoomAndPan="magnify"><defs><clipPath id="a"><path d="M 32 29 L 359.199219 29 L 359.199219 500 L 32 500 Z M 32 29"/></clipPath></defs><g><g id="change1_1"><path d="M 251.15625 159.648438 C 230.234375 123.136719 202.382812 90.046875 188.519531 49.816406 C 185.054688 39.761719 182.507812 29.421875 181.363281 18.835938 C 180.519531 10.992188 182.839844 -6.984375 170.9375 2.886719 C 155.441406 15.734375 150.832031 36.136719 155.269531 55.363281 C 160.085938 76.246094 173.984375 93.648438 186.203125 110.703125 C 199.347656 129.035156 211.140625 147.773438 220.414062 168.386719 C 229.804688 189.257812 237.0625 211.144531 241.929688 233.507812 C 246.574219 254.835938 249.480469 272.445312 230.519531 287.253906 C 215.085938 299.3125 195.625 304.902344 177.339844 311.023438 C 162.8125 315.882812 148.417969 320.976562 134.339844 326.878906 C 138.507812 333.484375 142.773438 340.019531 147.050781 346.484375 C 150.238281 351.292969 153.53125 356.039062 156.851562 360.773438 C 195.503906 347.738281 240.210938 334.617188 263.558594 298.222656 C 291.195312 255.140625 274.566406 200.492188 251.15625 159.648438 Z M 129.839844 370.183594 C 129.855469 370.203125 129.871094 370.226562 129.886719 370.246094 C 97.59375 382.292969 66.394531 397.378906 42.441406 422.980469 C 35.242188 430.683594 28.871094 439.199219 23.726562 448.40625 C 20.742188 453.757812 17.957031 468.542969 10.21875 468.28125 C 0.988281 467.964844 -0.382812 454.710938 0.078125 447.996094 C 0.792969 437.621094 5.292969 427.648438 10.546875 418.828125 C 32.363281 382.21875 73.875 356.691406 110.878906 337.726562 L 107.265625 339.617188 C 112.515625 347.28125 118.011719 354.675781 123.425781 361.785156 C 125.527344 364.546875 127.675781 367.347656 129.839844 370.183594" fill="#f46a61"/></g><g clip-path="url(#a)" id="change2_1"><path d="M 45.894531 408.4375 C 43.988281 407.769531 42.320312 407.5 40.820312 407.785156 C 41.003906 406.910156 39.882812 406.042969 39.054688 406.8125 C 34.445312 411.089844 29.738281 417.90625 35.761719 423.261719 C 40.160156 427.167969 47.390625 429.234375 52.710938 431.683594 C 58.976562 434.574219 65.257812 437.4375 71.566406 440.226562 C 80.9375 444.371094 90.429688 448.367188 100.019531 452.160156 C 102.605469 446.117188 105.113281 440.042969 107.542969 433.933594 C 92.59375 429.890625 78.4375 424.023438 64.488281 417.3125 C 58.386719 414.382812 52.285156 410.6875 45.894531 408.4375 Z M 95.566406 380.160156 C 89.457031 376.921875 82.0625 371.992188 74.957031 371.476562 C 66.242188 370.84375 60.980469 380.101562 66.285156 385.261719 C 65.722656 385.648438 65.609375 386.660156 66.300781 387.128906 C 81.6875 397.511719 99.171875 403.945312 116.238281 411.003906 C 118.324219 405.230469 120.339844 399.429688 122.28125 393.601562 C 121.121094 393.074219 119.960938 392.554688 118.804688 392.015625 C 110.90625 388.34375 103.257812 384.238281 95.566406 380.160156 Z M 233.488281 96.777344 C 222.640625 90.515625 211.835938 84.039062 200.8125 78.039062 C 205.941406 87.910156 211.691406 97.460938 217.675781 106.890625 C 223.230469 109.84375 228.757812 112.851562 234.246094 115.929688 C 236.144531 110.8125 238.257812 105.777344 240.476562 100.777344 C 238.144531 99.457031 235.8125 98.121094 233.488281 96.777344 Z M 191.105469 56.828125 C 209.640625 65.5625 228.503906 73.773438 247.519531 81.246094 C 250.230469 75.683594 252.863281 70.089844 255.269531 64.414062 C 249.34375 61.9375 243.421875 59.441406 237.472656 57.015625 C 224.714844 51.8125 211.898438 46.785156 199.234375 41.34375 C 194.074219 39.128906 189.019531 36.582031 183.964844 34.039062 C 185.195312 39.371094 186.730469 44.632812 188.519531 49.816406 C 189.332031 52.179688 190.199219 54.515625 191.105469 56.828125 Z M 177.339844 311.023438 C 182.316406 309.355469 187.382812 307.726562 192.429688 305.996094 C 182.414062 302.484375 172.417969 299.289062 162.785156 294.714844 C 157.871094 292.382812 152.871094 290.207031 147.824219 288.121094 C 145.089844 293.523438 142.238281 298.855469 139.070312 303.96875 C 148.074219 307.5 156.984375 311.234375 165.933594 314.910156 C 169.722656 313.589844 173.527344 312.296875 177.339844 311.023438 Z M 203.785156 267.609375 C 191.292969 262.8125 178.761719 258.054688 166.269531 253.183594 C 163.167969 258.441406 160.171875 263.761719 157.34375 269.171875 C 162.296875 271.351562 167.257812 273.515625 172.242188 275.632812 C 184.390625 280.800781 196.546875 286.027344 208.863281 290.789062 C 212.441406 292.171875 216.101562 293.308594 219.796875 294.335938 C 223.527344 292.234375 227.125 289.90625 230.519531 287.253906 C 233.324219 285.0625 235.640625 282.8125 237.554688 280.496094 C 233.679688 278.296875 229.015625 277.027344 224.949219 275.527344 C 217.886719 272.914062 210.820312 270.3125 203.785156 267.609375 Z M 236.550781 237.726562 C 223.085938 232.660156 209.578125 227.714844 196.019531 222.90625 C 193.003906 221.835938 189.980469 220.792969 186.957031 219.75 C 183.613281 225.121094 180.230469 230.46875 176.871094 235.832031 C 190.296875 240.941406 203.601562 246.382812 216.96875 251.695312 C 223.117188 254.140625 229.304688 256.511719 235.527344 258.765625 C 238.625 259.886719 241.847656 261.230469 245.113281 262.464844 C 245.875 255.550781 244.894531 248.148438 243.328125 240.203125 C 241.054688 239.378906 238.78125 238.566406 236.550781 237.726562 Z M 198.542969 200.480469 C 205.296875 202.355469 212.039062 204.265625 218.707031 206.433594 C 224.875 208.441406 230.832031 211.160156 236.886719 213.535156 C 234.800781 206.222656 232.484375 198.976562 229.898438 191.824219 C 221.996094 189.957031 214.011719 188.398438 206.15625 186.382812 C 203.738281 191.148438 201.195312 195.84375 198.542969 200.480469 Z M 156.875 360.765625 C 156.867188 360.765625 156.859375 360.769531 156.851562 360.773438 C 153.53125 356.039062 150.238281 351.292969 147.050781 346.484375 C 146.496094 345.644531 145.945312 344.792969 145.390625 343.953125 C 135.898438 329.773438 126.796875 315.328125 118.632812 300.347656 C 107.8125 280.503906 97.363281 257.167969 108.109375 234.976562 C 122.457031 205.34375 160.746094 195.527344 189.0625 183.71875 C 199.785156 179.246094 210.542969 174.835938 221.289062 170.402344 C 220.992188 169.730469 220.714844 169.054688 220.414062 168.386719 C 216.253906 159.136719 211.578125 150.265625 206.507812 141.636719 C 206.207031 141.730469 205.902344 141.816406 205.597656 141.910156 C 181.503906 149.273438 157.050781 157.425781 134.867188 169.535156 C 96.042969 190.730469 68.917969 226.703125 76.820312 272.664062 C 81.09375 297.488281 92.988281 319.179688 107.152344 339.652344 C 108.398438 339.003906 109.640625 338.363281 110.878906 337.726562 L 107.265625 339.617188 C 112.515625 347.28125 118.011719 354.675781 123.425781 361.785156 C 125.527344 364.546875 127.675781 367.347656 129.839844 370.183594 C 129.855469 370.203125 129.871094 370.226562 129.886719 370.246094 C 129.882812 370.246094 129.871094 370.25 129.863281 370.253906 C 135.585938 377.734375 141.242188 385.179688 146.542969 392.695312 C 159.601562 411.214844 171.6875 431.226562 177.203125 453.421875 C 179.90625 464.296875 180.894531 475.601562 179.648438 486.757812 C 179.363281 489.292969 175.539062 500.097656 180.820312 499.992188 C 184.285156 499.921875 188.863281 490.742188 190.269531 488.21875 C 213.101562 447.210938 184.707031 400.542969 161.390625 367.242188 C 159.882812 365.089844 158.378906 362.925781 156.875 360.765625 Z M 357.800781 63.296875 C 348.210938 108.285156 302.570312 135.457031 263.820312 152.4375 C 259.34375 154.398438 254.847656 156.328125 250.34375 158.246094 C 245.519531 149.914062 240.347656 141.753906 235.074219 133.636719 C 250.402344 129.367188 265.59375 124.648438 279.683594 117.214844 C 298.953125 107.046875 315.449219 91.878906 327.503906 73.746094 C 333.535156 64.679688 338.464844 54.871094 342.128906 44.613281 C 343.613281 40.457031 344 35.789062 347.195312 32.949219 C 347.289062 32.867188 351.070312 30.21875 351.722656 30 C 353.585938 29.367188 355.820312 29.554688 356.539062 31.917969 C 359.621094 42.097656 360.011719 52.902344 357.800781 63.296875" fill="#86aadf"/></g><g id="change3_1"><path d="M 15.078125 427.640625 C 9.03125 432.230469 6.71875 441.179688 6.386719 448.46875 C 6.214844 452.273438 6.121094 462.921875 12.5 461.464844 C 13.207031 461.304688 13.445312 460.332031 12.929688 459.84375 C 8.578125 455.730469 9.707031 448.585938 10.910156 443.226562 C 12.074219 438.058594 14.832031 433.679688 16.480469 428.71875 C 16.722656 427.980469 15.75 427.132812 15.078125 427.640625 Z M 163.359375 399.242188 C 162.644531 398.328125 161.160156 399.507812 161.761719 400.476562 C 169.0625 412.222656 175.109375 424.660156 178.789062 438.027344 C 180.628906 444.710938 182.003906 451.546875 182.753906 458.4375 C 183.449219 464.769531 183.320312 471.15625 184.675781 477.398438 C 184.839844 478.164062 185.945312 478.09375 186.152344 477.398438 C 189.894531 464.675781 186.03125 448.539062 182.226562 436.195312 C 178.121094 422.863281 171.949219 410.257812 163.359375 399.242188 Z M 252.492188 236.566406 C 252.863281 245.753906 254.324219 254.695312 253.289062 263.914062 C 252.15625 274.015625 248.652344 283.59375 241.722656 291.167969 C 235.125 298.386719 226.542969 303.867188 218.042969 308.582031 C 209.234375 313.46875 199.621094 316.378906 190.714844 320.941406 C 190.007812 321.304688 190.34375 322.449219 191.117188 322.429688 C 201.523438 322.136719 212.269531 317.300781 221.347656 312.519531 C 230.773438 307.550781 240.246094 301.191406 247.113281 292.9375 C 259.628906 277.898438 261.4375 254.289062 254.734375 236.265625 C 254.316406 235.132812 252.441406 235.195312 252.492188 236.566406 Z M 347.023438 41.941406 C 344.703125 48.128906 342.824219 54.402344 339.9375 60.367188 C 337.453125 65.492188 333.742188 70.121094 331.882812 75.511719 C 331.582031 76.386719 332.730469 77.324219 333.511719 76.765625 C 338.703125 73.035156 341.683594 66.625 344.222656 60.925781 C 346.851562 55.011719 348.886719 48.734375 349.265625 42.246094 C 349.34375 40.878906 347.449219 40.808594 347.023438 41.941406 Z M 168.664062 67.683594 C 161.8125 61.257812 160.765625 48.699219 161.3125 39.863281 C 161.964844 29.40625 165.371094 19.953125 171.441406 11.453125 C 172.386719 10.132812 174.492188 11.289062 173.65625 12.746094 C 168.835938 21.113281 166.167969 30.996094 166.0625 40.640625 C 166.007812 45.617188 166.5625 50.539062 167.734375 55.371094 C 168.664062 59.222656 170.152344 62.945312 170.558594 66.898438 C 170.660156 67.914062 169.300781 68.28125 168.664062 67.683594" fill="#fff"/></g><g id="change4_1"><path d="M 167.855469 455.636719 C 160.960938 452.714844 154.039062 449.871094 147.097656 447.078125 C 134.425781 441.980469 121.953125 437.746094 108.75 434.273438 C 108.34375 434.164062 107.945312 434.042969 107.542969 433.933594 C 105.113281 440.042969 102.605469 446.117188 100.019531 452.160156 C 115.992188 458.476562 132.226562 464.222656 148.578125 469.125 C 154.78125 470.984375 160.972656 472.886719 167.191406 474.691406 C 171.007812 475.800781 175.902344 477.992188 180.164062 477.582031 C 180.195312 471.714844 179.648438 465.855469 178.609375 460.078125 C 175.125 458.375 171.300781 457.09375 167.855469 455.636719 Z M 122.28125 393.601562 C 120.339844 399.429688 118.324219 405.230469 116.238281 411.003906 C 120.210938 412.648438 124.160156 414.324219 128.058594 416.09375 C 139.230469 421.167969 150.457031 426.144531 161.585938 431.320312 C 165.4375 433.109375 168.671875 435.726562 172.195312 437.894531 C 168.105469 427.488281 162.753906 417.566406 156.796875 408.054688 C 145.183594 403.5 133.632812 398.765625 122.28125 393.601562 Z M 277.296875 118.148438 C 271.753906 115.824219 266.121094 113.921875 260.648438 111.363281 C 253.777344 108.152344 247.097656 104.527344 240.476562 100.777344 C 238.257812 105.777344 236.144531 110.8125 234.246094 115.929688 C 240.578125 119.476562 246.875 123.09375 253.136719 126.78125 C 259.183594 130.339844 268.628906 138.84375 276.125 135.175781 C 279.777344 133.386719 283.910156 126.890625 282.402344 122.519531 C 281.558594 120.066406 279.425781 119.042969 277.296875 118.148438 Z M 317.742188 89.996094 C 317.554688 88.355469 316.238281 87.515625 314.984375 87.53125 C 301.488281 83.660156 288.410156 77.652344 275.335938 72.578125 C 268.597656 69.964844 261.929688 67.199219 255.269531 64.414062 C 252.863281 70.089844 250.230469 75.683594 247.519531 81.246094 C 249.820312 82.148438 252.121094 83.0625 254.425781 83.941406 C 262.238281 86.929688 270.214844 89.484375 277.984375 92.566406 C 284.054688 94.972656 289.84375 98.019531 295.902344 100.417969 C 304.40625 103.777344 319.1875 102.5625 317.742188 89.996094 Z M 139.070312 303.96875 C 142.238281 298.855469 145.089844 293.523438 147.824219 288.121094 C 130.632812 281.007812 112.835938 275.070312 95.410156 268.710938 C 94.414062 267.070312 91.667969 266.664062 90.382812 268.660156 C 80.261719 284.359375 111.648438 294.09375 121.3125 297.398438 C 127.300781 299.445312 133.203125 301.667969 139.070312 303.96875 Z M 96.660156 244.761719 C 97.40625 244.859375 98.007812 244.601562 98.441406 244.160156 C 110.550781 247.378906 121.898438 253.40625 133.28125 258.480469 C 141.300781 262.054688 149.308594 265.636719 157.34375 269.171875 C 160.171875 263.761719 163.167969 258.441406 166.269531 253.183594 C 152.320312 247.746094 138.421875 242.171875 124.707031 236.238281 C 117.746094 233.230469 111.011719 229.742188 104.074219 226.699219 C 100.566406 225.164062 96.480469 223.84375 92.996094 226.136719 C 86.304688 230.535156 88.558594 243.699219 96.660156 244.761719 Z M 129.800781 198.753906 C 124.304688 196.804688 118.949219 195.855469 113.757812 198.921875 C 112.53125 199.644531 112.574219 200.933594 113.265625 201.761719 C 111.871094 204.027344 111.433594 206.859375 112.53125 209.785156 C 115.964844 218.921875 129.539062 220.058594 137.457031 222.367188 C 150.820312 226.265625 163.902344 230.894531 176.871094 235.832031 C 180.230469 230.46875 183.613281 225.121094 186.957031 219.75 C 174.933594 215.605469 162.859375 211.589844 150.945312 207.148438 C 143.84375 204.503906 136.933594 201.285156 129.800781 198.753906 Z M 204.378906 185.933594 C 204.96875 186.089844 205.5625 186.230469 206.15625 186.382812 C 203.738281 191.148438 201.195312 195.84375 198.542969 200.480469 C 193.308594 199.027344 188.066406 197.59375 182.847656 196.078125 C 171.242188 192.707031 159.679688 188.804688 149.195312 182.699219 C 146.464844 181.109375 143.273438 179.714844 143.0625 176.128906 C 142.871094 172.824219 145.261719 169.816406 147.589844 167.824219 C 148.285156 167.230469 149.152344 167.589844 149.46875 168.203125 C 155.328125 167.171875 163.230469 172.347656 168.132812 174.179688 C 180.03125 178.632812 192.105469 182.660156 204.378906 185.933594" fill="#f9ae8f"/></g><g id="change5_1"><path d="M 106.085938 431.933594 C 103.800781 434.953125 102.683594 439.308594 101.34375 442.804688 C 99.800781 446.824219 98.039062 450.785156 98.363281 455.15625 C 98.40625 455.6875 99.023438 455.988281 99.429688 455.597656 C 102.667969 452.5 104.0625 448.09375 105.644531 443.988281 C 106.820312 440.925781 109.945312 435.582031 108.996094 432.316406 C 108.585938 430.886719 106.882812 430.882812 106.085938 431.933594 Z M 121.664062 392.898438 C 118.660156 398.527344 116.535156 404.15625 115.214844 410.40625 C 115.027344 411.289062 116.121094 411.714844 116.632812 411.003906 C 120.34375 405.816406 123.203125 400.46875 125.644531 394.578125 C 126.59375 392.289062 122.808594 390.75 121.664062 392.898438 Z M 138.910156 308.414062 C 144.875 302.441406 147.621094 294.136719 149.890625 286.15625 C 150.464844 284.140625 147.4375 283.34375 146.773438 285.296875 C 144.167969 292.960938 140.066406 300.007812 137.757812 307.742188 C 137.558594 308.410156 138.429688 308.894531 138.910156 308.414062 Z M 165.753906 252.625 C 163.332031 255.222656 161.851562 258.683594 160.261719 261.828125 C 158.777344 264.761719 157.308594 267.640625 157.050781 270.957031 C 156.972656 271.9375 158.222656 272.257812 158.851562 271.703125 C 161.414062 269.457031 162.816406 266.40625 164.300781 263.390625 C 165.757812 260.421875 167.574219 257.308594 168.164062 254.03125 C 168.40625 252.710938 166.8125 251.488281 165.753906 252.625 Z M 184.789062 220.617188 C 181.882812 227.167969 178.351562 233.40625 176.425781 240.328125 C 176.261719 240.914062 177.078125 241.46875 177.503906 240.957031 C 182.195312 235.316406 184.753906 228.496094 187.3125 221.683594 C 187.855469 220.234375 185.425781 219.1875 184.789062 220.617188 Z M 205.988281 185.550781 C 203.105469 190.632812 199.65625 195.605469 198.46875 201.394531 C 198.308594 202.167969 199.230469 202.796875 199.839844 202.191406 C 204.011719 198.03125 206.269531 192.453125 208.925781 187.269531 C 209.921875 185.328125 207.074219 183.628906 205.988281 185.550781 Z M 239.210938 110.324219 C 240.292969 107.039062 241.707031 103.578125 241.171875 100.085938 C 241.09375 99.578125 240.410156 99.503906 240.09375 99.800781 C 237.652344 102.0625 236.652344 105.515625 235.523438 108.5625 C 234.175781 112.1875 233.078125 115.425781 233.054688 119.304688 C 233.050781 120.003906 234.074219 120.558594 234.5625 119.929688 C 236.890625 116.925781 238.019531 113.933594 239.210938 110.324219 Z M 248.128906 86.007812 C 250.152344 83.324219 251.019531 80.089844 252.203125 76.980469 C 253.625 73.246094 255.179688 69.53125 256.84375 65.898438 C 257.554688 64.347656 255.503906 63.097656 254.535156 64.550781 C 250.710938 70.277344 245.585938 78.28125 246.15625 85.472656 C 246.246094 86.566406 247.492188 86.847656 248.128906 86.007812 Z M 30.644531 412.605469 C 28.929688 416.386719 29.257812 421.132812 32.054688 424.332031 C 34.402344 427.011719 40.609375 430.417969 43.902344 427.960938 C 44.308594 427.660156 44.558594 427.117188 44.25 426.636719 C 43.015625 424.707031 41.171875 424.738281 39.109375 424.050781 C 34.523438 422.527344 32 418.0625 34.589844 413.566406 C 36.429688 410.371094 40.289062 408.886719 43.835938 408.941406 C 47.566406 409 50.261719 411.074219 53.648438 412.105469 C 54.988281 412.511719 55.597656 410.894531 54.886719 409.980469 C 49.046875 402.457031 34.578125 403.941406 30.644531 412.605469 Z M 77.316406 374.207031 C 84.835938 375.613281 91.136719 380.75 98.308594 382.988281 C 99.308594 383.300781 100.097656 381.9375 99.335938 381.222656 C 94.402344 376.578125 86.5625 373.527344 80.089844 371.578125 C 75.179688 370.097656 70.105469 370.234375 66.507812 374.433594 C 58.421875 383.875 69.835938 394.480469 78.839844 396.773438 C 80.792969 397.269531 81.984375 394.550781 80.21875 393.503906 C 77.449219 391.867188 74.445312 390.660156 71.792969 388.808594 C 68.699219 386.648438 67.199219 384.414062 67.765625 380.546875 C 68.449219 375.859375 72.464844 373.300781 77.316406 374.207031 Z M 311.550781 86.867188 C 309.429688 87.199219 309.972656 90.039062 311.550781 90.648438 C 313.769531 91.503906 316.253906 91.125 317.257812 93.613281 C 318.527344 96.773438 316.792969 100.085938 313.714844 101.144531 C 311.386719 101.941406 308.773438 102.207031 306.324219 102.046875 C 303.875 101.886719 302.046875 101.289062 299.640625 101.9375 C 299.234375 102.046875 299.015625 102.550781 299.242188 102.917969 C 303.242188 109.316406 317.824219 107.179688 320.984375 100.742188 C 324.523438 93.535156 319.808594 85.570312 311.550781 86.867188 Z M 275.300781 117.820312 C 273.636719 118.011719 273.277344 120.136719 274.90625 120.742188 C 276.582031 121.355469 278.25 122 279.90625 122.671875 C 284.230469 127.699219 284.089844 131.507812 279.488281 134.09375 C 276.144531 135.992188 271.867188 135.324219 268.40625 134.398438 C 263.296875 133.035156 259.378906 129.953125 254.828125 127.488281 C 254.046875 127.0625 253.042969 127.941406 253.5625 128.753906 C 258.859375 137.089844 274.296875 142.945312 282.90625 136.53125 C 291.496094 130.128906 285.734375 116.636719 275.300781 117.820312 Z M 168.1875 192.359375 C 164.042969 190.113281 159.824219 187.753906 155.777344 185.316406 C 154.140625 184.328125 149.59375 182.28125 148.710938 180.480469 C 145.054688 173.035156 156.699219 173.460938 159.53125 173.894531 C 167.226562 175.078125 175.570312 182.210938 183.382812 179.835938 C 184.046875 179.632812 184.242188 178.648438 183.582031 178.296875 C 180.160156 176.46875 176.296875 175.804688 172.679688 174.367188 C 169.261719 173.007812 165.929688 171.378906 162.332031 170.53125 C 156.96875 169.269531 150.347656 169.152344 146.074219 173.21875 C 135.265625 183.503906 161.179688 191.957031 167.722656 193.460938 C 168.367188 193.609375 168.8125 192.695312 168.1875 192.359375 Z M 121 218.636719 C 121.734375 218.769531 122.703125 217.9375 122.121094 217.179688 C 120.875 215.566406 119.226562 214.566406 117.867188 213.074219 C 115.722656 210.710938 115.207031 209.429688 115.902344 206.304688 C 116.804688 202.25 119.46875 201.34375 123.65625 201.34375 C 130.355469 201.347656 136.746094 204.671875 143.34375 204.339844 C 144.054688 204.304688 144.679688 203.292969 143.996094 202.757812 C 139.269531 199.058594 132.113281 198.179688 126.285156 197.523438 C 121.921875 197.035156 117.027344 197.421875 113.738281 200.699219 C 107.507812 206.910156 113.378906 217.234375 121 218.636719 Z M 92.613281 244.980469 C 95.925781 247.851562 101.722656 250.507812 106.074219 249.011719 C 106.832031 248.75 107.382812 247.59375 106.605469 246.992188 C 101.515625 243.050781 92.242188 243.949219 90.730469 235.789062 C 89.578125 229.570312 95.371094 227.132812 100.449219 228.390625 C 104.003906 229.269531 106.917969 230.835938 110.652344 230.726562 C 111.542969 230.699219 111.804688 229.324219 110.871094 229.117188 C 105.609375 227.96875 100.199219 224.144531 94.636719 225.394531 C 90.664062 226.292969 88.0625 229.886719 87.695312 233.835938 C 87.292969 238.132812 89.417969 242.214844 92.613281 244.980469 Z M 98.445312 289.960938 C 102.519531 292.546875 109.722656 296.804688 114.589844 295.160156 C 115.21875 294.945312 115.664062 294.164062 115.246094 293.542969 C 113.707031 291.269531 111.375 290.632812 108.910156 289.625 C 105.273438 288.140625 101.691406 286.59375 98.519531 284.238281 C 95.671875 282.125 90.082031 277.378906 90.144531 273.382812 C 90.261719 266.085938 101.550781 271.816406 104.257812 272.605469 C 105.257812 272.898438 105.738281 271.539062 104.9375 270.992188 C 101.316406 268.519531 93.933594 264.847656 89.449219 266.792969 C 84.992188 268.730469 86.65625 274.199219 88.015625 277.59375 C 90.132812 282.898438 93.648438 286.917969 98.445312 289.960938 Z M 122.714844 357.554688 C 117.777344 350.792969 113.039062 343.617188 107.089844 337.695312 C 106.097656 336.710938 104.734375 337.949219 105.261719 339.105469 C 109.027344 347.371094 114.777344 354.78125 120.097656 362.097656 C 124.515625 368.179688 128.695312 375.28125 134.816406 379.78125 C 135.675781 380.410156 137.027344 379.359375 136.652344 378.371094 C 133.75 370.664062 127.523438 364.148438 122.714844 357.554688 Z M 145.730469 339.71875 C 140.558594 332.316406 135.632812 324.554688 129.453125 317.9375 C 128.742188 317.179688 127.707031 318.140625 128.097656 318.984375 C 132.230469 327.871094 138.238281 335.910156 143.804688 343.949219 C 148.332031 350.484375 152.574219 358.6875 159.015625 363.503906 C 159.6875 364.003906 160.648438 363.175781 160.410156 362.429688 C 157.75 354.167969 150.671875 346.785156 145.730469 339.71875 Z M 248.328125 151.042969 C 244.753906 144.855469 241.039062 138.5 236.371094 133.0625 C 235.480469 132.027344 233.941406 133.351562 234.542969 134.476562 C 238.078125 141.074219 242.445312 147.25 246.160156 153.761719 C 249.46875 159.550781 251.972656 166.136719 256.230469 171.28125 C 256.792969 171.964844 257.746094 171.210938 257.597656 170.484375 C 256.1875 163.566406 251.820312 157.089844 248.328125 151.042969 Z M 222.179688 166.523438 C 225.769531 173.234375 230.359375 180.78125 230.566406 188.566406 C 230.589844 189.515625 229.398438 189.671875 228.917969 189.011719 C 223.820312 182.003906 220.792969 172.945312 216.746094 165.257812 C 212.816406 157.789062 208.671875 150.421875 205.40625 142.632812 C 204.84375 141.285156 206.898438 140.664062 207.613281 141.703125 C 213.042969 149.566406 217.671875 158.101562 222.179688 166.523438" fill="#2e2e30"/></g></g></svg>