<?xml version="1.0" encoding="UTF-8"?><svg xmlns="http://www.w3.org/2000/svg" xmlns:xlink="http://www.w3.org/1999/xlink" height="108.1" preserveAspectRatio="xMidYMid meet" version="1.0" viewBox="0.0 0.0 127.1 108.1" width="127.1" zoomAndPan="magnify"><g><g><g><g><g><g><path d="M121.84,88.4c-4.22-4.26-11.05-4.26-15.27,0c-0.04,0.04-0.07,0.07-0.11,0.11 c-0.5-1.63-1.39-3.17-2.67-4.46c-4.22-4.25-11.06-4.25-15.27,0c-0.27,0.27-0.52,0.55-0.75,0.84c-0.52-1.44-1.35-2.8-2.5-3.95 c-4.22-4.26-11.05-4.26-15.27,0c-4.22,4.25-4.22,11.15,0,15.41c4.22,4.25,11.05,4.25,15.27,0c0.26-0.27,0.51-0.54,0.74-0.83 c0.53,1.44,1.36,2.79,2.51,3.94c4.21,4.26,11.05,4.26,15.27,0c0.04-0.04,0.07-0.07,0.11-0.11c0.5,1.63,1.39,3.17,2.67,4.46 c4.22,4.25,11.05,4.25,15.27,0C126.05,99.55,126.05,92.65,121.84,88.4z" fill="#a9dde0"/></g><g><path d="M68.9,73.6l37.16-0.02l12.2-0.01l0.02-25.9l-21.43,0.02c1.22-3.59,1.88-7.43,1.88-11.43 c0-3.96-0.65-7.77-1.84-11.32h-0.01c-1.24-3.72-3.09-7.16-5.42-10.2C85.06,6.38,75.03,1,63.75,1C57.3,1,51.26,2.76,46.08,5.83 c-4.71,2.78-8.71,6.65-11.68,11.25c-1.74,2.71-3.13,5.66-4.09,8.81h-2.56v26.54c-1.51-0.45-3.23-0.86-5.15-1.16V34.19H12.32 V51c-1.55,0.16-3.28,0.43-5.15,0.88C5.24,52.34,3.16,52.99,1,53.9c0,14.17,0,28.35,0,42.52v5.19 c3.1-1.31,8.51-3.11,15.43-3.11c3.36,0,9.04,0.42,15.43,3.11c3.11-1.31,8.51-3.11,15.43-3.11c3.36,0,9.04,0.42,15.43,3.11 v-30.1c0.35,0.01,0.69,0.02,1.03,0.02c1.75,0,3.47-0.13,5.15-0.38V73.6z" fill="#a9dde0"/></g></g><g><path d="M121.84,88.4c4.21,4.25,4.21,11.15,0,15.41c-4.22,4.25-11.05,4.25-15.27,0 c-1.28-1.29-2.17-2.83-2.67-4.46c2.84-2.95,3.7-7.14,2.56-10.84c0.04-0.04,0.07-0.07,0.11-0.11 C110.79,84.14,117.62,84.14,121.84,88.4z" fill="#ef9d26"/></g><g><path d="M100.68,47.69H90.15L68.91,47.7L68.9,71.15v2.45l31.78-0.02h5.38l12.2-0.01l0.02-25.9 L100.68,47.69z M114.15,67.34c-1.3,0-2.38,0.91-2.58,2.1h-10.89l-13.9,0.01H75.6c-0.21-1.19-1.29-2.09-2.59-2.09l0.01-13 c1.45,0,2.63-1.13,2.63-2.52l17.94-0.01h7.09l10.86-0.01c0,1.39,1.17,2.52,2.62,2.52L114.15,67.34z" fill="#3fa07f"/></g><g><path d="M114.16,54.34l-0.01,13c-1.3,0-2.38,0.91-2.58,2.1h-6.37l-18.42,0.01H75.6 c-0.21-1.19-1.29-2.09-2.59-2.09l0.01-13c1.45,0,2.63-1.13,2.63-2.52l17.94-0.01l17.95-0.01 C111.54,53.21,112.71,54.34,114.16,54.34z M98.61,60.64c0-2.8-2.25-5.07-5.02-5.07c-2.78,0-5.03,2.27-5.03,5.07 s2.25,5.06,5.03,5.06C96.36,65.7,98.61,63.44,98.61,60.64z" fill="#8bcb8f"/></g><g><path d="M106.46,88.51c1.14,3.7,0.28,7.89-2.56,10.84c-0.04,0.04-0.07,0.07-0.11,0.11 c-4.22,4.26-11.06,4.26-15.27,0c-1.15-1.15-1.98-2.5-2.51-3.94v-0.01c2.45-3.04,3.04-7.09,1.76-10.62 c0.23-0.29,0.48-0.57,0.75-0.84c4.21-4.25,11.05-4.25,15.27,0C105.07,85.34,105.96,86.88,106.46,88.51z" fill="#f9b132"/></g><g><path d="M93.59,55.57c2.77,0,5.02,2.27,5.02,5.07s-2.25,5.06-5.02,5.06c-2.78,0-5.03-2.26-5.03-5.06 S90.81,55.57,93.59,55.57z" fill="#d0e8cf"/></g><g><path d="M98.73,36.26c0,4-0.66,7.84-1.88,11.43h-3.26h-3.44v-0.05c0,0-5.04-1.21-8.62-3.07 c-3.57-1.85-4.4-5.19-4.4-5.19c-1.06-2.16-0.61-4.71,1.02-6.23c1.35-1.25,3.33-1.64,5.15-1.03c0.11,0.06,2.13,1.14,4.11,0 c1.43-0.83,2.24-2.46,2.06-4.15c-0.03-0.2-0.47-2.87,1.03-4.15c1.4-1.2,4.24-0.99,6.38,1.12h0.01 C98.08,28.49,98.73,32.3,98.73,36.26z" fill="#6fceae"/></g><g><path d="M96.88,24.94c-2.14-2.11-4.98-2.32-6.38-1.12c-1.5,1.28-1.06,3.95-1.03,4.15 c0.18,1.69-0.63,3.32-2.06,4.15c-1.98,1.14-4,0.06-4.11,0c-1.82-0.61-3.8-0.22-5.15,1.03c-1.63,1.52-2.08,4.07-1.02,6.23 c0,0,0.83,3.34,4.4,5.19c3.58,1.86,8.62,3.07,8.62,3.07v0.05L68.91,47.7L68.9,71.15c-1.35,0.2-2.72,0.32-4.11,0.36 c-0.35,0.01-0.69,0.02-1.04,0.02c-0.34,0-0.68-0.01-1.03-0.02V53.9c-2.1-0.89-5.27-2.01-9.25-2.63V40.41l1.44-3.71l0.97-2.51 c1.9-4.06,0.38-8.04-1.99-8.96c-2.24-0.87-4.8,1.15-4.99,1.31c-1.69,1.17-3.89,1.25-5.59,0.19c-2.36-1.46-2.39-4.27-2.39-4.42 c-0.42-2.31-1.98-4.21-4.09-4.94c-0.79-0.27-1.62-0.36-2.43-0.29c2.97-4.6,6.97-8.47,11.68-11.25 c-1.57,6.03-1.11,11.14,1.21,12.8c1.5,1.07,3.09,1.04,3.09,1.04c0.22-0.01,2.22-0.08,3.34-1.54c0.48-0.61,0.38-0.77,0.77-1.57 c0.64-1.3,1.87-2.13,3.09-2.08c1.7,0.08,3.29,1.89,3.09,4.15c-0.19,2.05,0.34,2.59,1.03,3.11c1.39,1.08,3.52-1.05,5.14,0 c1.11,0.72,0.54,2.01,1.91,3.5c0.16,0.18,1.51,1.44,3.23,1.69c3.21,0.46,6.71-2.18,7.2-6.22c0.03-0.22,0.32-2.11,2.06-3.12 c1.99-1.14,4.01-0.06,4.12,0c0.11,0.07,2.12,1.15,4.11,0c0.66-0.37,1.47-1.08,1.99-2.85C93.79,17.78,95.64,21.22,96.88,24.94z" fill="#2f84b9"/></g><g><path d="M91.46,14.74c-0.52,1.77-1.33,2.48-1.99,2.85c-1.99,1.15-4,0.07-4.11,0 c-0.11-0.06-2.13-1.14-4.12,0c-1.74,1.01-2.03,2.9-2.06,3.12c-0.49,4.04-3.99,6.68-7.2,6.22c-1.72-0.25-3.07-1.51-3.23-1.69 c-1.37-1.49-0.8-2.78-1.91-3.5c-1.62-1.05-3.75,1.08-5.14,0c-0.69-0.52-1.22-1.06-1.03-3.11c0.2-2.26-1.39-4.07-3.09-4.15 c-1.22-0.05-2.45,0.78-3.09,2.08c-0.39,0.8-0.29,0.96-0.77,1.57c-1.12,1.46-3.12,1.53-3.34,1.54c0,0-1.59,0.03-3.09-1.04 c-2.32-1.66-2.78-6.77-1.21-12.8C51.26,2.76,57.3,1,63.75,1C75.03,1,85.06,6.38,91.46,14.74z" fill="#6fceae"/></g><g><path d="M77.63,94.39c0.51-0.04,1.01-0.17,1.45-0.39c1.45-0.7,2.53-2.44,2.03-3.67 c-0.44-1.07-1.95-1.36-3.48-1.71l0.01-6.56c-0.19-0.01-0.39,0-0.58,0.02c-0.6,0.06-1.12,0.25-1.54,0.49 c-1.28,0.7-1.99,2.04-1.75,3.36c0.04,0.25,0.12,0.49,0.25,0.74c0.65,1.2,2.14,1.61,3.61,1.95V94.39z M87.77,84.89 c1.28,3.53,0.69,7.58-1.76,10.62v0.01c-0.23,0.29-0.48,0.56-0.74,0.83c-4.22,4.25-11.05,4.25-15.27,0 c-4.22-4.26-4.22-11.16,0-15.41c4.22-4.26,11.05-4.26,15.27,0C86.42,82.09,87.25,83.45,87.77,84.89z" fill="#ffc05a"/></g><g><path d="M81.11,90.33c0.5,1.23-0.58,2.97-2.03,3.67c-0.44,0.22-0.94,0.35-1.45,0.39v-5.77 C79.16,88.97,80.67,89.26,81.11,90.33z" fill="#ffc05a"/></g><g><path d="M77.64,82.06l-0.01,6.56c-1.47-0.34-2.96-0.75-3.61-1.95c-0.13-0.25-0.21-0.49-0.25-0.74 c-0.24-1.32,0.47-2.66,1.75-3.36c0.42-0.24,0.94-0.43,1.54-0.49C77.25,82.06,77.45,82.05,77.64,82.06z" fill="#ffc05a"/></g><g><path d="M62.72,53.9v47.71c-6.39-2.69-12.07-3.11-15.43-3.11c-1.48,0-2.9,0.08-4.23,0.23 c-4.9,0.52-8.76,1.85-11.2,2.88V72.57h21.61v-21.3C57.45,51.89,60.62,53.01,62.72,53.9z" fill="#fbe2ae"/></g><g><path d="M55.88,34.19l-0.97,2.51l-1.44,3.71H43.18V51c-1.55,0.16-3.28,0.43-5.15,0.88V25.89h-7.72 c0.33-1.08,0.71-2.13,1.14-3.16c0.81-1.98,1.81-3.87,2.95-5.65c0.81-0.07,1.64,0.02,2.43,0.29c2.11,0.73,3.67,2.63,4.09,4.94 c0,0.15,0.03,2.96,2.39,4.42c1.7,1.06,3.9,0.98,5.59-0.19c0.19-0.16,2.75-2.18,4.99-1.31C56.26,26.15,57.78,30.13,55.88,34.19z" fill="#6fceae"/></g><g><path d="M53.47 51.27L53.47 72.57 43.18 72.57 43.18 51 43.18 40.41 53.47 40.41z" fill="#f6a7b7"/></g><g><path d="M43.18,51v21.57h-5.15V51.88C39.9,51.43,41.63,51.16,43.18,51z" fill="#fbe2ae"/></g><g><path d="M38.03 51.88L38.03 72.57 31.86 72.57 27.75 72.57 27.75 52.43 27.75 25.89 30.31 25.89 38.03 25.89z" fill="#dc4e4f"/></g><g><path d="M31.86,96.42v5.19c-6.39-2.69-12.07-3.11-15.43-3.11c-6.92,0-12.33,1.8-15.43,3.11v-5.19 c3.1-1.3,8.51-3.11,15.43-3.11C19.79,93.31,25.47,93.74,31.86,96.42z" fill="#4fc3c8"/></g><g><path d="M31.86,72.57v23.85c-6.39-2.68-12.07-3.11-15.43-3.11C9.51,93.31,4.1,95.12,1,96.42V53.9 c2.16-0.91,4.24-1.56,6.17-2.02v20.69H31.86z" fill="#a9dde0"/></g><g><path d="M27.75,52.43v20.14H22.6v-21.3C24.52,51.57,26.24,51.98,27.75,52.43z" fill="#a9dde0"/></g><g><path d="M22.6 51.27L22.6 72.57 12.32 72.57 12.32 51 12.32 34.19 22.6 34.19z" fill="#8ecaef"/></g><g><path d="M12.32,51v21.57H7.17V51.88C9.04,51.43,10.77,51.16,12.32,51z" fill="#a9dde0"/></g></g></g></g><g fill="#3a322b"><path d="M67.897,72.266l-0.001,1.336c0,0.266,0.105,0.521,0.293,0.708s0.441,0.293,0.707,0.293 c0,0,0,0,0.001,0l37.162-0.021l12.203-0.007c0.552,0,0.999-0.447,0.999-0.999l0.014-25.902c0-0.266-0.105-0.521-0.293-0.708 s-0.441-0.293-0.707-0.293c0,0,0,0-0.001,0L98.22,46.684c1.001-3.367,1.509-6.865,1.509-10.42c0-4.049-0.672-7.941-1.892-11.581 c-0.016-0.06-0.031-0.118-0.059-0.175C92.922,10.267,79.509,0,63.753,0C48.093,0,34.461,9.974,29.588,24.893h-1.841 c-0.553,0-1,0.447-1,1v25.242c-1.041-0.272-2.089-0.505-3.144-0.694V34.189c0-0.553-0.447-1-1-1H12.316c-0.553,0-1,0.447-1,1 v15.941c-1.056,0.134-2.104,0.31-3.144,0.525V25.893c0-0.553-0.447-1-1-1s-1,0.447-1,1V51.1c-1.893,0.491-3.751,1.114-5.561,1.875 C0.241,53.131,0,53.494,0,53.896v42.524v5.186c0,0.335,0.168,0.647,0.446,0.833c0.167,0.11,0.359,0.167,0.554,0.167 c0.131,0,0.263-0.025,0.388-0.078c4.791-2.013,9.853-3.033,15.043-3.033s10.253,1.021,15.044,3.033 c0.019,0.008,0.04,0.01,0.059,0.017c0.032,0.011,0.065,0.02,0.098,0.028c0.058,0.014,0.115,0.022,0.173,0.025 c0.019,0.001,0.038,0.008,0.057,0.008c0.01,0,0.02-0.006,0.03-0.006c0.115-0.004,0.229-0.025,0.337-0.068 c0.007-0.003,0.014-0.001,0.021-0.004c4.789-2.013,9.851-3.033,15.043-3.033c5.191,0,10.252,1.021,15.043,3.033 c0.311,0.131,0.662,0.096,0.941-0.089c0.278-0.186,0.446-0.498,0.446-0.833V72.528c0.01,0,0.019,0,0.029,0 C65.14,72.528,66.526,72.425,67.897,72.266z M117.263,72.576l-11.205,0.006l-36.16,0.02L69.909,48.7l26.943-0.015 c0.001,0,0.001,0,0.002,0c0.001,0,0.001,0,0.002,0l20.418-0.011L117.263,72.576z M90.331,14.956 c-0.424,1.121-0.967,1.546-1.36,1.771c-1.505,0.867-3.062,0.03-3.131-0.008c-0.266-0.146-2.662-1.392-5.099,0.008 c-2.102,1.21-2.493,3.417-2.551,3.856c-0.212,1.722-1.091,3.288-2.411,4.298c-1.107,0.847-2.442,1.237-3.655,1.058 c-1.291-0.185-2.414-1.131-2.641-1.371c-0.529-0.58-0.675-1.102-0.829-1.653c-0.181-0.646-0.405-1.448-1.272-2.011 c-1.197-0.777-2.472-0.406-3.496-0.106c-0.803,0.234-1.311,0.363-1.582,0.152c-0.476-0.365-0.789-0.606-0.643-2.228 c0.126-1.393-0.308-2.772-1.19-3.786c-0.761-0.873-1.797-1.402-2.845-1.452c-1.627-0.1-3.211,0.957-4.031,2.634 c-0.172,0.351-0.261,0.592-0.336,0.796c-0.094,0.253-0.129,0.349-0.328,0.606c-0.848,1.098-2.505,1.147-2.568,1.148 c-0.027,0.013-1.289,0.009-2.488-0.851c-1.883-1.348-2.244-6.005-0.911-11.393C51.948,3.585,57.69,2,63.753,2 C74.506,2,84.101,7.069,90.331,14.956z M28.747,26.893h8.287v44.673h-8.287V26.893z M39.034,52.693 c1.039-0.226,2.088-0.407,3.144-0.548v19.42h-3.144V52.693z M52.465,71.565h-8.287V41.413h8.287V71.565z M26.747,53.2v18.365 h-3.144V52.476C24.659,52.675,25.708,52.914,26.747,53.2z M13.316,35.189h8.287v36.376h-8.287V35.189z M11.316,52.148v19.418 H8.173V52.697C9.212,52.471,10.26,52.288,11.316,52.148z M2,54.567c1.363-0.546,2.76-0.992,4.173-1.38v19.378c0,0.553,0.447,1,1,1 h5.144h10.287h5.144h3.115v21.391c-4.625-1.75-9.471-2.646-14.432-2.646c-4.96,0-9.807,0.886-14.431,2.636V54.567z M2,100.131 v-3.028c4.61-1.847,9.46-2.794,14.431-2.794s9.822,0.946,14.432,2.794v3.028c-4.624-1.75-9.472-2.636-14.432-2.636 S6.624,98.381,2,100.131z M61.724,100.131c-4.624-1.75-9.471-2.636-14.431-2.636c-4.961,0-9.809,0.886-14.431,2.636v-3.71V96.42 c0-0.001,0-0.001,0-0.002V73.565h5.172h5.144h10.287h4.115c0.553,0,1-0.447,1-1s-0.447-1-1-1h-3.115V52.47 c2.484,0.468,4.921,1.161,7.259,2.097V100.131z M63.111,52.975c-2.769-1.165-5.677-2.005-8.646-2.537V40.413c0-0.553-0.447-1-1-1 H43.178c-0.553,0-1,0.447-1,1v9.715c-1.055,0.134-2.103,0.31-3.144,0.525v-24.76c0-0.553-0.447-1-1-1h-6.342 c0.841-2.422,1.933-4.697,3.233-6.809c0.539-0.001,1.072,0.061,1.579,0.234c1.74,0.596,3.043,2.159,3.414,4.09 c0.021,0.613,0.259,3.56,2.863,5.176c2.043,1.269,4.668,1.18,6.744-0.269c0.023-0.019,2.282-1.819,4.001-1.151 c0.739,0.288,1.393,1.027,1.793,2.029c0.663,1.657,0.537,3.688-0.346,5.571c-0.234,0.5-0.02,1.096,0.48,1.33 c0.138,0.064,0.282,0.095,0.424,0.095c0.376,0,0.736-0.213,0.906-0.575c1.117-2.384,1.261-4.994,0.393-7.164 c-0.605-1.514-1.672-2.662-2.926-3.149c-2.735-1.065-5.657,1.197-5.925,1.416c-1.362,0.948-3.124,1.016-4.49,0.168 c-1.902-1.181-1.92-3.55-1.92-3.572c0-0.062-0.005-0.123-0.016-0.184c-0.479-2.678-2.299-4.863-4.748-5.703 c-0.318-0.109-0.643-0.185-0.97-0.245c2.318-3.254,5.168-6.047,8.411-8.272c-1.02,5.517-0.261,9.833,2.116,11.536 c1.747,1.253,3.613,1.229,3.691,1.225c0.446-0.011,2.741-0.15,4.113-1.926c0.386-0.501,0.5-0.81,0.621-1.136 c0.058-0.156,0.125-0.342,0.257-0.61c0.463-0.944,1.328-1.532,2.141-1.515c0.505,0.023,1.026,0.304,1.431,0.768 c0.526,0.604,0.784,1.439,0.706,2.292c-0.205,2.272,0.363,3.186,1.416,3.994c1.094,0.842,2.351,0.477,3.361,0.182 c0.883-0.259,1.447-0.395,1.847-0.136c0.21,0.136,0.274,0.297,0.435,0.871c0.181,0.646,0.429,1.532,1.277,2.463 c0.016,0.017,1.588,1.681,3.835,2.004c0.284,0.04,0.572,0.061,0.861,0.061c1.486,0,3.012-0.53,4.293-1.51 c1.745-1.335,2.904-3.392,3.18-5.633c0.021-0.164,0.25-1.62,1.565-2.376c1.504-0.864,3.067-0.028,3.126,0.004 c0.104,0.06,2.604,1.433,5.103-0.004c0.693-0.398,1.243-0.979,1.688-1.713c1.237,1.793,2.307,3.71,3.191,5.729 c-1.933-0.69-3.86-0.392-4.998,0.581c-1.918,1.642-1.426,4.737-1.373,5.013c0.137,1.303-0.478,2.551-1.564,3.179 c-1.496,0.864-3.061,0.028-3.126-0.008c-0.055-0.03-0.111-0.056-0.171-0.075c-2.172-0.726-4.528-0.247-6.141,1.253 c-1.969,1.83-2.481,4.871-1.247,7.396c0.174,0.354,0.529,0.561,0.899,0.561c0.147,0,0.297-0.032,0.438-0.102 c0.496-0.242,0.701-0.842,0.459-1.338c-0.851-1.739-0.517-3.816,0.812-5.052c1.06-0.984,2.615-1.303,4.076-0.844 c0.507,0.252,2.766,1.232,5.001-0.06c1.77-1.022,2.771-3.031,2.542-5.191c-0.113-0.631-0.209-2.438,0.695-3.212 c0.988-0.848,3.132-0.654,4.849,0.915c1.116,3.39,1.73,7.009,1.73,10.771c0,3.564-0.545,7.064-1.607,10.421l-27.213,0.016 c-0.552,0-0.999,0.447-0.999,0.999l-0.012,22.567c-1.379,0.169-2.78,0.254-4.175,0.253V53.896 C63.724,53.494,63.482,53.131,63.111,52.975z" fill="inherit"/><path d="M75.646,50.841c-0.552,0-0.999,0.447-0.999,0.999c-0.001,0.837-0.731,1.518-1.629,1.519 c-0.552,0-0.999,0.447-0.999,0.999l-0.007,13c0,0.266,0.105,0.521,0.293,0.708s0.441,0.293,0.707,0.293h0.001h0.001 c0.798,0,1.47,0.533,1.598,1.268c0.084,0.479,0.5,0.828,0.985,0.828c0,0,0,0,0.001,0l29.603-0.016h-0.001l6.366-0.003 c0.486,0,0.901-0.349,0.985-0.827c0.129-0.736,0.804-1.271,1.604-1.271c0.552,0,0.999-0.447,0.999-0.999l0.007-13 c0-0.266-0.105-0.521-0.293-0.708s-0.441-0.293-0.707-0.293c0,0,0,0-0.001,0h-0.001c-0.455,0-0.876-0.171-1.187-0.481 c-0.281-0.281-0.436-0.647-0.436-1.032c0-0.266-0.105-0.521-0.293-0.708s-0.441-0.293-0.707-0.293L75.646,50.841z M113.16,55.203 l-0.007,11.269c-1.033,0.286-1.886,1.006-2.318,1.964l-5.636,0.003h-0.001l-28.871,0.016c-0.432-0.958-1.282-1.676-2.315-1.961 l0.007-11.271c1.187-0.331,2.126-1.234,2.479-2.381l34.187-0.019c0.164,0.539,0.461,1.034,0.874,1.447 C112.007,54.72,112.557,55.037,113.16,55.203z" fill="inherit"/><path d="M93.586,54.573c-3.321,0-6.023,2.721-6.023,6.064s2.702,6.064,6.023,6.064s6.023-2.721,6.023-6.064 S96.907,54.573,93.586,54.573z M93.586,64.702c-2.219,0-4.023-1.823-4.023-4.064s1.805-4.064,4.023-4.064s4.023,1.823,4.023,4.064 S95.805,64.702,93.586,64.702z" fill="inherit"/><path d="M78.635,87.824l0.002-4.585c0.665,0.228,1.253,0.654,1.651,1.236 c0.312,0.455,0.933,0.574,1.39,0.261c0.456-0.312,0.573-0.934,0.261-1.39c-0.768-1.124-1.974-1.889-3.3-2.169l0-0.702 c0-0.553-0.447-1.001-0.999-1.001c-0.001,0-0.001,0-0.001,0c-0.552,0-1,0.447-1,0.999l0,0.677c-0.559,0.097-1.1,0.264-1.602,0.54 c-1.656,0.91-2.563,2.684-2.253,4.416c0.066,0.366,0.187,0.713,0.355,1.031c0.716,1.346,2.099,1.895,3.496,2.262l-0.002,3.928 c-1.015-0.169-2.073-0.721-2.82-1.743c-0.326-0.446-0.951-0.545-1.397-0.218c-0.446,0.326-0.543,0.952-0.218,1.397 c1.083,1.481,2.752,2.4,4.434,2.595l0,0.745c0,0.553,0.447,1.001,0.999,1.001c0.001,0,0.001,0,0.001,0c0.552,0,1-0.447,1-0.999 l0-0.881c0.304-0.08,0.603-0.181,0.887-0.319c1.796-0.874,3.271-3.123,2.516-4.953C81.485,88.622,80.086,88.171,78.635,87.824z M74.904,86.197c-0.073-0.138-0.123-0.284-0.152-0.445c-0.158-0.885,0.343-1.813,1.246-2.31c0.204-0.112,0.419-0.194,0.639-0.258 l-0.002,4.138C75.853,87.075,75.196,86.745,74.904,86.197z M78.644,93.105c-0.003,0.002-0.008,0.002-0.011,0.004l0.002-3.223 c0.759,0.204,1.395,0.449,1.552,0.828C80.434,91.317,79.758,92.563,78.644,93.105z" fill="inherit"/><path d="M99.758,96.47h-5.245c0.216-0.387,0.401-0.792,0.558-1.211c0.237-0.639,0.391-1.301,0.473-1.975 h2.158c0.553,0,1-0.447,1-1s-0.447-1-1-1h-2.598c-0.278-0.407-0.645-1.123-0.527-1.973c0.127-0.91,0.876-2.251,2.08-2.251 c0.003,0,0.006,0,0.01,0c0.818,0.005,1.595,0.584,1.931,1.439c0.201,0.515,0.782,0.766,1.296,0.565 c0.514-0.201,0.768-0.781,0.565-1.296c-0.631-1.61-2.15-2.698-3.78-2.709c-0.008,0-0.015,0-0.021,0 c-2.277,0-3.791,2.044-4.061,3.975c-0.12,0.86,0.03,1.622,0.267,2.249h-1.335c-0.553,0-1,0.447-1,1s0.447,1,1,1h1.986 c-0.069,0.435-0.165,0.864-0.319,1.278c-0.307,0.827-0.769,1.577-1.371,2.228c-0.271,0.292-0.342,0.716-0.183,1.08 c0.158,0.364,0.519,0.6,0.916,0.6h7.2c0.553,0,1-0.447,1-1S100.311,96.47,99.758,96.47z" fill="inherit"/><path d="M122.548,87.694c-2.228-2.249-5.191-3.487-8.344-3.487c-2.702,0-5.261,0.916-7.345,2.595 c-0.567-1.249-1.346-2.424-2.364-3.451c-2.228-2.249-5.19-3.487-8.343-3.487c0,0,0,0-0.001,0c-3.03,0-5.879,1.155-8.076,3.242 c-0.538-1.034-1.237-2.004-2.097-2.873c-2.228-2.249-5.191-3.487-8.344-3.487s-6.116,1.238-8.344,3.487 c-4.594,4.638-4.594,12.182,0,16.818c2.228,2.249,5.191,3.488,8.344,3.488c3.034,0,5.886-1.158,8.083-3.249 c0.548,1.053,1.241,2.021,2.09,2.878c2.229,2.249,5.192,3.488,8.345,3.488c2.7-0.001,5.257-0.915,7.336-2.589 c0.582,1.273,1.384,2.447,2.372,3.445c2.228,2.249,5.191,3.487,8.344,3.487s6.116-1.238,8.344-3.487 C127.142,99.876,127.142,92.331,122.548,87.694z M77.635,98.539c-2.615,0-5.073-1.029-6.924-2.896 c-3.824-3.859-3.824-10.142,0-14.002c1.851-1.867,4.309-2.896,6.924-2.896s5.073,1.028,6.924,2.896 c3.824,3.86,3.824,10.143,0,14.002C82.708,97.51,80.25,98.539,77.635,98.539z M89.228,98.76c-0.896-0.905-1.583-1.956-2.074-3.116 c2.228-3.079,2.814-6.996,1.742-10.514c0.111-0.124,0.214-0.252,0.331-0.371c1.851-1.867,4.31-2.896,6.924-2.896 c0.001,0,0.001,0,0.001,0c2.614,0,5.073,1.028,6.923,2.896c3.825,3.86,3.825,10.141,0,14.001c-1.85,1.867-4.309,2.896-6.923,2.896 C93.537,101.656,91.078,100.628,89.228,98.76z M121.128,103.104c-1.851,1.867-4.309,2.896-6.924,2.896s-5.073-1.028-6.923-2.895 c-0.995-1.005-1.752-2.227-2.24-3.547c2.605-3.016,3.447-7.044,2.528-10.72c1.815-1.693,4.15-2.631,6.634-2.631 c2.615,0,5.073,1.028,6.924,2.896C124.952,92.963,124.952,99.244,121.128,103.104z" fill="inherit"/><path d="M115.672,90.353c0.474,0.038,0.96,0.295,1.445,0.762c0.399,0.382,1.03,0.371,1.414-0.027 c0.383-0.397,0.371-1.031-0.027-1.414c-0.826-0.795-1.725-1.237-2.671-1.314c-1.229-0.1-2.51,0.426-3.641,1.47 c-1.594,1.47-2.583,3.674-2.583,5.751s0.989,4.28,2.582,5.75c1.043,0.963,2.222,1.481,3.351,1.481c0.098,0,0.194-0.004,0.29-0.012 c0.945-0.075,1.845-0.518,2.672-1.313c0.398-0.383,0.41-1.017,0.027-1.414c-0.384-0.398-1.015-0.41-1.414-0.027 c-0.485,0.468-0.972,0.724-1.444,0.761c-0.647,0.061-1.419-0.294-2.125-0.945c-0.922-0.851-1.583-2.066-1.828-3.28h4.034 c0.553,0,1-0.447,1-1s-0.447-1-1-1h-4.034c0.246-1.214,0.906-2.43,1.829-3.281C114.255,90.646,115.03,90.294,115.672,90.353z" fill="inherit"/></g></g></svg>